Simulation
nRows=23
nColumns=15
endheader
time  TH_x TH_y TH_z SC_y  SC_z  SC_x  AC_y  AC_z  AC_x  GH_y  GH_z  GH_yy  EL_x  PS_y
0.0  0.000000  0.000000  0.000000  -29.083003503189243  -0.6363281954816655  -2.143349785779061  55.89150871940604  8.41405188823843  -6.621393099935853  32.63522378868144  16.234615598760488  8.049201461168664  27.115173393127105  0.000000
0.038999999999999986  0.000000  0.000000  0.000000  -28.735104574987023  -0.42481046079424467  -2.2750710624713437  55.58087642473378  8.44323820246697  -6.5562323018576585  32.65798723065811  16.45319234168914  7.896767225570422  26.70749517877031  0.000000
0.07799999999999997  0.000000  0.000000  0.000000  -28.42560718826744  -0.2899715702949349  -2.491605559303293  55.2729766028962  8.436418230695528  -6.50200525763277  32.58621864545681  16.59258102756878  7.8537883363093055  26.29183118554082  0.000000
0.11699999999999997  0.000000  0.000000  0.000000  -28.15639242889408  -0.23160500787671032  -2.785639380164164  55.01366074227678  8.45020788826071  -6.426508077171037  32.54591618158429  16.729556197715166  7.7597820328808265  25.895204535586476  0.000000
0.15599999999999994  0.000000  0.000000  0.000000  -27.933642751997354  -0.2426994532650487  -3.127213403940648  54.845673016668364  8.51726443069369  -6.315466598707925  32.69465911469294  16.95359406698076  7.392820651014408  25.537081320338118  0.000000
0.19499999999999992  0.000000  0.000000  0.000000  -27.773825004550233  -0.3004317615258587  -3.465520649657707  54.79547512376095  8.643658317924055  -6.165025206261611  33.189970427471046  17.34799773799526  6.538728013975229  25.236994586159824  0.000000
0.23399999999999993  0.000000  0.000000  0.000000  -27.684123872029563  -0.37655511054157303  -3.7521340711557896  54.864648972329654  8.82383988372548  -5.98476609313204  34.15272454719518  17.97762844300076  5.027568356613291  25.007213877034218  0.000000
0.2729999999999999  0.000000  0.000000  0.000000  -27.66706232999623  -0.4470726275301739  -3.945141320490867  55.04101296839103  9.042105377978453  -5.792940510827568  35.60881485930555  18.88747749344014  2.8020611551258088  24.848482570859318  0.000000
0.3119999999999999  0.000000  0.000000  0.000000  -27.707621902511647  -0.49476920354799714  -4.013986760491644  55.302656934480034  9.277741899866925  -5.610682255735899  37.47448452499198  20.09782787841196  -0.071909649300626  24.75344929655337  0.000000
0.35099999999999987  0.000000  0.000000  0.000000  -27.776821947360276  -0.5101435251466764  -3.938240970566191  55.62898629883797  9.510144600324283  -5.4562578856743  39.57104503999324  21.602672194419462  -3.4115674052266334  24.715020870483396  0.000000
0.38999999999999985  0.000000  0.000000  0.000000  -27.835051435155027  -0.4909479716919738  -3.7053722411222414  56.000685607596495  9.723296412967692  -5.345539421924203  41.68920861742144  23.36972845269193  -6.986532583527126  24.72945267027334  0.000000
0.4289999999999998  0.000000  0.000000  0.000000  -27.843975177010922  -0.4415843590495444  -3.3096650150993834  56.40324889061169  9.910629867152641  -5.291593514871085  43.649539707343074  25.345819065928012  -10.579509472691061  24.79115445705118  0.000000
0.46799999999999986  0.000000  0.000000  0.000000  -27.776471149048174  -0.3665518811247968  -2.749444010134039  56.8234514061509  10.072029090863866  -5.303362514188974  45.34703583839582  27.466467291600367  -14.039533987950264  24.892264646038765  0.000000
0.5069999999999998  0.000000  0.000000  0.000000  -27.623568785188056  -0.268192923577532  -2.0230789293684626  57.25017346480529  10.208071777795528  -5.386503755149773  46.75752254945898  29.66806059151254  -17.297625023383326  25.01585876051307  0.000000
0.5459999999999998  0.000000  0.000000  0.000000  -27.39520730858015  -0.14705299913107941  -1.1287688665260525  57.671623305430565  10.317264813722234  -5.5448199638217845  47.918817047331956  31.89731145132726  -20.357155590844354  25.138689619458976  0.000000
0.5849999999999997  0.000000  0.000000  0.000000  -27.118862943504336  -0.0008570134323171359  -0.0664332324308954  58.07425710314108  10.39505906408245  -5.77962482981948  48.90575079753596  34.115933293284336  -23.27293747897606  25.240064975454903  0.000000
0.6239999999999998  0.000000  0.000000  0.000000  -26.832512493278312  0.17349792462429947  1.1589077405139285  58.44376920768472  10.435278086064383  -6.087941000448888  49.80274511418938  36.30140613760298  -26.12182187404436  25.30618836505425  0.000000
0.6629999999999998  0.000000  0.000000  0.000000  -26.571619793616026  0.3780218045228308  2.5360479860592395  58.76980412667182  10.432933335963234  -6.461154165287835  50.67642772997423  38.443152435142196  -28.966114312685193  25.329544455088648  0.000000
0.7019999999999997  0.000000  0.000000  0.000000  -26.35752812587917  0.613572461100079  4.0499414157844456  59.05021907379844  10.386304844263073  -6.883661288588288  51.55570488251264  40.53505631919501  -31.81886385534913  25.30686431377589  0.000000
0.7409999999999998  0.000000  0.000000  0.000000  -26.1918804520297  0.8797903681985355  5.68350973902368  59.29218847876568  10.298030434832041  -7.333273545820371  52.425709254395684  42.56832958934874  -34.63066440030072  25.238192856711024  0.000000
0.7799999999999997  0.000000  0.000000  0.000000  -26.061595642229495  1.1748181921329743  7.4170317095349265  59.50956407586279  10.173752505261728  -7.782194160817999  53.238548315088075  44.52766926537883  -37.304682131791  25.1270979515588  0.000000
0.8189999999999997  0.000000  0.000000  0.000000  -25.950722518275033  1.4960869079189931  9.223509721903453  59.717794684675724  10.019309655012105  -8.198119173480725  53.933198254370254  46.39289986176901  -39.732582096744004  24.98351798993186  0.000000
0.8579999999999997  0.000000  0.000000  0.000000  -25.852068633465503  1.8414375152367162  11.063794862323135  59.930020131991114  9.83932222346128  -8.54520438364331  54.453851265268675  48.14356106845306  -41.828367411920006  24.825136389804005  0.000000
